<svg width="18" height="12" viewBox="0 0 18 12" fill="none" xmlns="http://www.w3.org/2000/svg">
<path d="M10.6744 2.03537C10.4405 1.80885 10.3111 1.50547 10.3141 1.19056C10.317 0.875657 10.452 0.574423 10.69 0.351743C10.928 0.129063 11.25 0.00275133 11.5865 1.48843e-05C11.9231 -0.00272156 12.2474 0.118336 12.4895 0.337113L17.6242 5.14123C17.8648 5.36645 18 5.67188 18 5.99035C18 6.30882 17.8648 6.61425 17.6242 6.83948L12.4895 11.6436C12.2474 11.8624 11.9231 11.9834 11.5865 11.9807C11.25 11.978 10.928 11.8516 10.69 11.629C10.452 11.4063 10.317 11.1051 10.3141 10.7901C10.3111 10.4752 10.4405 10.1719 10.6744 9.94534L13.6178 7.19138H1.31252C0.972067 7.19138 0.645561 7.06485 0.404825 6.83961C0.164089 6.61437 0.0288467 6.30889 0.0288467 5.99035C0.0288467 5.67182 0.164089 5.36633 0.404825 5.1411C0.645561 4.91586 0.972067 4.78933 1.31252 4.78933H13.6178L10.6744 2.03537Z" fill="#DAA520"/>
</svg>
