<svg width="18" height="12" viewBox="0 0 18 12" fill="none" xmlns="http://www.w3.org/2000/svg">
<path d="M7.32565 2.03537C7.55948 1.80885 7.68887 1.50547 7.68594 1.19056C7.68302 0.875657 7.54802 0.574423 7.31001 0.351743C7.07201 0.129063 6.75005 0.00275133 6.41347 1.48843e-05C6.0769 -0.00272156 5.75264 0.118336 5.51054 0.337113L0.375842 5.14123C0.135191 5.36645 0 5.67188 0 5.99035C0 6.30882 0.135191 6.61425 0.375842 6.83948L5.51054 11.6436C5.75264 11.8624 6.0769 11.9834 6.41347 11.9807C6.75005 11.978 7.07201 11.8516 7.31001 11.629C7.54802 11.4063 7.68302 11.1051 7.68594 10.7901C7.68887 10.4752 7.55948 10.1719 7.32565 9.94534L4.38219 7.19138H16.6875C17.0279 7.19138 17.3544 7.06485 17.5952 6.83961C17.8359 6.61437 17.9712 6.30889 17.9712 5.99035C17.9712 5.67182 17.8359 5.36633 17.5952 5.1411C17.3544 4.91586 17.0279 4.78933 16.6875 4.78933H4.38219L7.32565 2.03537Z" fill="white"/>
</svg>
