<svg width="38" height="37" fill="none" xmlns="http://www.w3.org/2000/svg"><path d="M31.722 5.49a18.073 18.073 0 00-5.911-3.953A18.147 18.147 0 0018.823.163C8.777.163.59 8.31.59 18.306c0 3.204.847 6.316 2.43 9.063l-2.577 9.41 9.66-2.527a18.311 18.311 0 008.721 2.215c10.047 0 18.234-8.146 18.234-18.142 0-4.852-1.895-9.41-5.335-12.834zM18.823 33.393a15.26 15.26 0 01-7.727-2.106l-.552-.33-5.741 1.502 1.527-5.565-.368-.568a15.066 15.066 0 01-2.318-8.019c0-8.311 6.808-15.085 15.161-15.085a15.04 15.04 0 0110.709 4.43 14.971 14.971 0 013.293 4.895 14.911 14.911 0 011.141 5.779c.037 8.311-6.771 15.067-15.125 15.067zm8.317-11.278c-.46-.22-2.705-1.318-3.11-1.483-.423-.146-.717-.22-1.03.22-.313.458-1.177 1.483-1.435 1.776-.258.311-.534.348-.994.11-.46-.22-1.932-.714-3.661-2.252-1.362-1.208-2.263-2.691-2.54-3.149-.257-.458-.036-.696.203-.934.202-.201.46-.53.68-.787.222-.256.314-.458.46-.75.148-.312.075-.568-.036-.788-.11-.22-1.03-2.453-1.398-3.368-.368-.88-.755-.77-1.03-.788h-.884c-.313 0-.791.11-1.214.568-.405.458-1.583 1.556-1.583 3.79 0 2.233 1.638 4.393 1.859 4.686.22.312 3.22 4.889 7.783 6.847 1.085.476 1.932.751 2.594.952 1.086.348 2.08.293 2.87.184.884-.129 2.705-1.099 3.073-2.16.387-1.063.387-1.96.258-2.161-.129-.201-.405-.293-.865-.513z" fill="#DAA520"/></svg>